HIERARCHY
ROOT joint_Root
{
	OFFSET 0.0 0.0 0.0
	CHANNELS 6 Xposition Yposition Zposition Zrotation Xrotation Yrotation 
	JOINT Hips
	{
		OFFSET -17.1583 93.1646 452.98
		CHANNELS 6 Xposition Yposition Zposition Zrotation Xrotation Yrotation 
		JOINT Spine
		{
			OFFSET 15.7357 0.0 0.0
			CHANNELS 6 Xposition Yposition Zposition Zrotation Xrotation Yrotation 
			JOINT Chest
			{
				OFFSET 8.98455 -0.406207 0.0
				CHANNELS 6 Xposition Yposition Zposition Zrotation Xrotation Yrotation 
				JOINT Neck
				{
					OFFSET 16.3773 0.0 0.0
					CHANNELS 6 Xposition Yposition Zposition Zrotation Xrotation Yrotation 
					JOINT Head
					{
						OFFSET 6.45672 0.0 0.0
						CHANNELS 6 Xposition Yposition Zposition Zrotation Xrotation Yrotation 
						End Site
						{
							OFFSET 0.0 0.0 0.0
						}
					}
				}
				JOINT Shoulder_L
				{
					OFFSET 12.9942 -0.242716 4.98039
					CHANNELS 6 Xposition Yposition Zposition Zrotation Xrotation Yrotation 
					JOINT UpperArm_L
					{
						OFFSET 5.34809 0.0 0.0
						CHANNELS 6 Xposition Yposition Zposition Zrotation Xrotation Yrotation 
						JOINT LowerArm_L
						{
							OFFSET 24.3286 1.87007e-05 0.0
							CHANNELS 6 Xposition Yposition Zposition Zrotation Xrotation Yrotation 
							JOINT Hand_L
							{
								OFFSET 22.2916 0.0 0.0
								CHANNELS 6 Xposition Yposition Zposition Zrotation Xrotation Yrotation 
								End Site
								{
									OFFSET 0.0 0.0 0.0
								}
							}
						}
					}
				}
				JOINT Shoulder_R
				{
					OFFSET 12.9945 -0.242716 -4.98039
					CHANNELS 6 Xposition Yposition Zposition Zrotation Xrotation Yrotation 
					JOINT UpperArm_R
					{
						OFFSET -5.34813 0.0 0.0
						CHANNELS 6 Xposition Yposition Zposition Zrotation Xrotation Yrotation 
						JOINT LowerArm_R
						{
							OFFSET -24.3289 0.000322201 0.0
							CHANNELS 6 Xposition Yposition Zposition Zrotation Xrotation Yrotation 
							JOINT Hand_R
							{
								OFFSET -22.2915 -0.000108084 0.0
								CHANNELS 6 Xposition Yposition Zposition Zrotation Xrotation Yrotation 
								End Site
								{
									OFFSET 0.0 0.0 0.0
								}
							}
						}
					}
				}
			}
		}
		JOINT UpperLeg_L
		{
			OFFSET -2.19248 -6.46944 0.0
			CHANNELS 6 Xposition Yposition Zposition Zrotation Xrotation Yrotation 
			JOINT LowerLeg_L
			{
				OFFSET 39.0811 0.0 -1.23785e-05
				CHANNELS 6 Xposition Yposition Zposition Zrotation Xrotation Yrotation 
				JOINT Foot_L
				{
					OFFSET 40.9854 0.0 -1.26872e-05
					CHANNELS 6 Xposition Yposition Zposition Zrotation Xrotation Yrotation 
					JOINT Toes_L
					{
						OFFSET 11.7543 0.0 0.0
						CHANNELS 6 Xposition Yposition Zposition Zrotation Xrotation Yrotation 
						End Site
						{
							OFFSET 0.0 0.0 0.0
						}
					}
				}
			}
		}
		JOINT UpperLeg_R
		{
			OFFSET -2.19251 6.46944 0.0
			CHANNELS 6 Xposition Yposition Zposition Zrotation Xrotation Yrotation 
			JOINT LowerLeg_R
			{
				OFFSET -39.0811 -0.00228153 -0.0401928
				CHANNELS 6 Xposition Yposition Zposition Zrotation Xrotation Yrotation 
				JOINT Foot_R
				{
					OFFSET -40.9854 0.0 0.0
					CHANNELS 6 Xposition Yposition Zposition Zrotation Xrotation Yrotation 
					JOINT Toes_R
					{
						OFFSET -11.7543 0.0 0.0
						CHANNELS 6 Xposition Yposition Zposition Zrotation Xrotation Yrotation 
						End Site
						{
							OFFSET 0.0 0.0 0.0
						}
					}
				}
			}
		}
	}
}
MOTION
Frames:	6
Frame Time:	0.0333333
0.000000 0.000000 0.000000 0.000000 0.000000 -0.000000 -0.529918 93.335900 0.291393 90.274400 6.503140 -0.691315 15.735700 0.000005 -0.000001 76.449500 87.505600 -67.014100 8.984550 -0.406207 -0.000000 -2.679740 -2.024460 18.826600 16.377300 -0.000001 -0.000001 -2.077870 2.665410 5.165660 6.456720 -0.000001 -0.000000 -7.954840 2.694290 0.969176 12.994200 -0.242716 4.980390 -87.120000 -6.003230 -64.311100 5.348090 -0.000007 -0.000001 -29.737100 -55.997500 -57.773100 24.328600 0.000019 0.000005 0.000053 22.226700 -0.000002 22.291600 -0.000001 0.000005 49.260900 4.237100 20.753100 12.994500 -0.242716 -4.980390 90.340100 -1.083810 -72.574600 -5.348130 -0.000001 -0.000004 -58.737400 1.547860 -7.040690 -24.328900 0.000322 -0.000009 3.160900 10.523900 -16.828300 -22.291500 -0.000108 -0.000004 9.522640 5.211950 2.417840 -2.192480 -6.469440 -0.000000 -175.043000 -3.947950 -0.669369 39.081100 -0.000007 -0.000012 0.002803 -0.015307 10.380900 40.985400 -0.000006 -0.000013 -2.835380 17.750100 -65.793400 11.754300 -0.000000 0.000003 -0.000356 0.173417 -9.542790 -2.192510 6.469440 -0.000001 175.217000 8.843610 -177.770000 -39.081100 -0.002282 -0.040193 0.008144 -0.028881 9.444010 -40.985400 0.000008 0.000006 -7.608500 2.170520 -67.187000 -11.754300 -0.000006 -0.000006 -0.010763 0.276920 -5.321270
0.000000 0.000000 0.000000 0.000000 0.000000 -0.000000 -0.510838 93.333100 0.373462 90.258500 6.503300 -0.736699 15.735700 0.000005 -0.000001 75.997000 87.527300 -66.579900 8.984550 -0.406207 -0.000000 -2.729330 -2.054650 18.788900 16.377300 -0.000001 -0.000001 -1.939430 2.683030 5.170190 6.456720 -0.000001 -0.000000 -7.976910 2.703350 1.015140 12.994200 -0.242716 4.980390 -87.128700 -5.974050 -64.270300 5.348090 -0.000007 -0.000001 -29.470200 -55.946200 -57.505600 24.328600 0.000019 0.000005 0.000053 22.249300 -0.000002 22.291600 -0.000001 0.000005 49.129800 4.238310 20.734800 12.994500 -0.242716 -4.980390 90.318100 -1.011540 -72.538900 -5.348130 -0.000001 -0.000004 -58.981800 1.308040 -6.651150 -24.328900 0.000322 -0.000009 3.197170 10.378200 -17.232900 -22.291500 -0.000108 -0.000004 9.465130 5.212390 2.406640 -2.192480 -6.469440 -0.000000 -175.026000 -3.971080 -0.648947 39.081100 -0.000007 -0.000012 0.002448 -0.013399 10.357800 40.985400 -0.000006 -0.000013 -2.891800 17.797400 -65.778000 11.754300 -0.000000 0.000003 -0.000255 0.171805 -9.608280 -2.192510 6.469440 -0.000001 175.204000 8.914270 -177.667000 -39.081100 -0.002282 -0.040193 0.007172 -0.023499 9.261150 -40.985400 0.000008 0.000006 -7.701070 2.248740 -67.093100 -11.754300 -0.000006 -0.000006 -0.010668 0.276228 -5.349570
0.000000 0.000000 0.000000 0.000000 0.000000 -0.000000 -0.487777 93.327600 0.433974 90.248800 6.512080 -0.772797 15.735700 0.000005 -0.000001 75.475900 87.550200 -66.080300 8.984550 -0.406207 -0.000000 -2.782780 -2.089140 18.744300 16.377300 -0.000001 -0.000001 -1.863890 2.653860 5.199270 6.456720 -0.000001 -0.000000 -7.905630 2.707830 1.033400 12.994200 -0.242716 4.980390 -87.134700 -5.955970 -64.249300 5.348090 -0.000007 -0.000001 -29.455400 -56.013200 -57.463200 24.328600 0.000019 0.000005 0.000053 22.298700 -0.000002 22.291600 -0.000001 0.000005 49.064500 4.244750 20.637200 12.994500 -0.242716 -4.980390 90.283900 -0.898971 -72.470000 -5.348130 -0.000001 -0.000004 -59.250600 1.148910 -6.350240 -24.328900 0.000322 -0.000009 3.223110 10.270000 -17.534400 -22.291500 -0.000108 -0.000004 9.257260 5.208750 2.498930 -2.192480 -6.469440 -0.000000 -175.039000 -3.890430 -0.654890 39.081100 -0.000007 -0.000012 0.002981 -0.016278 10.378300 40.985400 -0.000006 -0.000013 -2.806470 17.727600 -65.866900 11.754300 -0.000000 0.000003 -0.000296 0.172474 -9.581090 -2.192510 6.469440 -0.000001 175.192000 8.823400 -177.612000 -39.081100 -0.002282 -0.040193 0.006665 -0.020622 9.159210 -40.985400 0.000008 0.000006 -7.813870 2.192970 -67.046500 -11.754300 -0.000006 -0.000006 -0.010518 0.275137 -5.394230
0.000000 0.000000 0.000000 0.000000 0.000000 -0.000000 -0.454820 93.324200 0.509028 90.234500 6.491060 -0.756249 15.735700 0.000005 -0.000001 75.193800 87.552100 -65.812500 8.984550 -0.406207 -0.000000 -2.791230 -2.110900 18.715100 16.377300 -0.000001 -0.000001 -1.792800 2.675970 5.160260 6.456720 -0.000001 -0.000000 -7.841610 2.692460 1.119420 12.994200 -0.242716 4.980390 -87.134300 -5.963250 -64.273800 5.348090 -0.000007 -0.000001 -29.160900 -56.077000 -57.187800 24.328600 0.000019 0.000005 0.000053 22.404100 -0.000002 22.291600 -0.000001 0.000005 48.973500 4.246400 20.612200 12.994500 -0.242716 -4.980390 90.270800 -0.854421 -72.412700 -5.348130 -0.000001 -0.000004 -59.575900 1.180570 -6.148020 -24.328900 0.000322 -0.000009 3.220910 10.147600 -17.719300 -22.291500 -0.000108 -0.000004 9.119000 5.210720 2.449050 -2.192480 -6.469440 -0.000000 -175.033000 -3.935970 -0.589158 39.081100 -0.000007 -0.000012 0.002782 -0.015170 10.395600 40.985400 -0.000006 -0.000013 -2.828160 17.725700 -65.914600 11.754300 -0.000000 0.000003 -0.000285 0.172298 -9.588230 -2.192510 6.469440 -0.000001 175.145000 8.924040 -177.472000 -39.081100 -0.002282 -0.040193 0.005631 -0.014424 9.021540 -40.985400 0.000008 0.000006 -8.035980 2.365910 -66.950100 -11.754300 -0.000006 -0.000006 -0.010506 0.275049 -5.397830
0.000000 0.000000 0.000000 0.000000 0.000000 -0.000000 -0.427242 93.315800 0.564478 90.238500 6.469750 -0.775116 15.735700 0.000005 -0.000001 75.036700 87.573900 -65.692100 8.984550 -0.406207 -0.000000 -2.837820 -2.113090 18.641200 16.377300 -0.000001 -0.000001 -1.761750 2.676120 5.182310 6.456720 -0.000001 -0.000000 -7.744150 2.696690 1.193300 12.994200 -0.242716 4.980390 -87.122900 -5.984000 -64.262400 5.348090 -0.000007 -0.000001 -29.194800 -56.196800 -57.278500 24.328600 0.000019 0.000005 0.000053 22.491800 -0.000002 22.291600 -0.000001 0.000005 48.971000 4.244690 20.638000 12.994500 -0.242716 -4.980390 90.235300 -0.740911 -72.379100 -5.348130 -0.000001 -0.000004 -59.856000 1.353190 -5.907980 -24.328900 0.000322 -0.000009 3.185720 9.921480 -17.907800 -22.291500 -0.000108 -0.000004 8.919510 5.211860 2.420200 -2.192480 -6.469440 -0.000000 -175.067000 -3.917380 -0.544020 39.081100 -0.000007 -0.000012 0.004263 -0.023286 10.376300 40.985400 -0.000006 -0.000013 -2.631970 17.674400 -66.024300 11.754300 -0.000000 0.000003 -0.000384 0.173851 -9.525130 -2.192510 6.469440 -0.000001 175.113000 8.971840 -177.461000 -39.081100 -0.002282 -0.040193 0.005579 -0.014072 9.037500 -40.985400 0.000008 0.000006 -8.084050 2.428190 -66.978300 -11.754300 -0.000006 -0.000006 -0.010463 0.274734 -5.410710
0.000000 0.000000 0.000000 0.000000 0.000000 -0.000000 -0.400278 93.309700 0.620477 90.222100 6.449420 -0.815195 15.735700 0.000005 -0.000001 74.627400 87.593800 -65.285900 8.984550 -0.406207 -0.000000 -2.883350 -2.139380 18.633800 16.377300 -0.000001 -0.000001 -1.712280 2.738250 5.140400 6.456720 -0.000001 -0.000000 -7.679340 2.703370 1.195710 12.994200 -0.242716 4.980390 -87.138000 -5.943410 -64.228400 5.348090 -0.000007 -0.000001 -28.744000 -56.150200 -56.963300 24.328600 0.000019 0.000005 0.000054 22.327700 -0.000002 22.291600 -0.000001 0.000005 48.959600 4.246680 20.607900 12.994500 -0.242716 -4.980390 90.227700 -0.718850 -72.419900 -5.348130 -0.000001 -0.000004 -60.167700 1.529680 -5.744870 -24.328900 0.000322 -0.000009 3.215990 9.957060 -18.007500 -22.291500 -0.000108 -0.000004 8.828280 5.212160 2.412500 -2.192480 -6.469440 -0.000000 -175.074000 -3.904200 -0.578084 39.081100 -0.000007 -0.000012 0.004779 -0.025943 10.439800 40.985400 -0.000006 -0.000013 -2.587190 17.621000 -66.086400 11.754300 -0.000000 0.000003 -0.000161 0.170288 -9.669900 -2.192510 6.469440 -0.000001 175.089000 9.020410 -177.439000 -39.081100 -0.002282 -0.040193 0.005174 -0.011602 8.982470 -40.985400 0.000008 0.000006 -8.266390 2.539460 -66.914200 -11.754300 -0.000006 -0.000006 -0.010406 0.274317 -5.427780
